{"asset":{"version":"2.0","generator":"babylon.js glTF exporter for 3dsmax 2017 v20210507.3"},"extensionsUsed":["KHR_texture_transform"],"extensionsRequired":["KHR_texture_transform"],"scene":0,"scenes":[{"nodes":[0]}],"nodes":[{"mesh":0,"scale":[1.49156332,1.49156332,1.49156332],"name":"swordgirl as obj_01"}],"meshes":[{"primitives":[{"attributes":{"POSITION":1,"NORMAL":2,"TEXCOORD_0":3},"indices":0,"material":0},{"attributes":{"POSITION":5,"NORMAL":6,"TEXCOORD_0":7},"indices":4,"material":1},{"attributes":{"POSITION":9,"NORMAL":10,"TEXCOORD_0":11},"indices":8,"material":2},{"attributes":{"POSITION":13,"NORMAL":14,"TEXCOORD_0":15},"indices":12,"material":3},{"attributes":{"POSITION":17,"NORMAL":18,"TEXCOORD_0":19},"indices":16,"material":4},{"attributes":{"POSITION":21,"NORMAL":22,"TEXCOORD_0":23},"indices":20,"material":5},{"attributes":{"POSITION":25,"NORMAL":26,"TEXCOORD_0":27},"indices":24,"material":6},{"attributes":{"POSITION":29,"NORMAL":30,"TEXCOORD_0":31},"indices":28,"material":7},{"attributes":{"POSITION":33,"NORMAL":34,"TEXCOORD_0":35},"indices":32,"material":8},{"attributes":{"POSITION":37,"NORMAL":38,"TEXCOORD_0":39},"indices":36,"material":9}],"name":"swordgirl as obj_01"}],"accessors":[{"bufferView":0,"componentType":5125,"count":160569,"type":"SCALAR","name":"accessorIndices"},{"bufferView":1,"componentType":5126,"count":160569,"max":[3.2728,60.2060623,4.649208],"min":[-21.4605,17.74176,-7.62299156],"type":"VEC3","name":"accessorPositions"},{"bufferView":1,"byteOffset":1926828,"componentType":5126,"count":160569,"type":"VEC3","name":"accessorNormals"},{"bufferView":2,"componentType":5126,"count":160569,"type":"VEC2","name":"accessorUVs"},{"bufferView":0,"byteOffset":642276,"componentType":5125,"count":1512,"type":"SCALAR","name":"accessorIndices"},{"bufferView":1,"byteOffset":3853656,"componentType":5126,"count":1512,"max":[-8.7833,38.8065567,-0.8901901],"min":[-12.85,37.62156,-2.84809113],"type":"VEC3","name":"accessorPositions"},{"bufferView":1,"byteOffset":3871800,"componentType":5126,"count":1512,"type":"VEC3","name":"accessorNormals"},{"bufferView":2,"byteOffset":1284552,"componentType":5126,"count":1512,"type":"VEC2","name":"accessorUVs"},{"bufferView":0,"byteOffset":648324,"componentType":5125,"count":238626,"type":"SCALAR","name":"accessorIndices"},{"bufferView":1,"byteOffset":3889944,"componentType":5126,"count":238626,"max":[3.265,59.14396,3.83470917],"min":[-21.7169,12.6983566,-10.5504913],"type":"VEC3","name":"accessorPositions"},{"bufferView":1,"byteOffset":6753456,"componentType":5126,"count":238626,"type":"VEC3","name":"accessorNormals"},{"bufferView":2,"byteOffset":1296648,"componentType":5126,"count":238626,"type":"VEC2","name":"accessorUVs"},{"bufferView":0,"byteOffset":1602828,"componentType":5125,"count":13920,"type":"SCALAR","name":"accessorIndices"},{"bufferView":1,"byteOffset":9616968,"componentType":5126,"count":13920,"max":[4.2877,12.4574585,12.93401],"min":[-15.4592,-12.11544,-21.1272926],"type":"VEC3","name":"accessorPositions"},{"bufferView":1,"byteOffset":9784008,"componentType":5126,"count":13920,"type":"VEC3","name":"accessorNormals"},{"bufferView":2,"byteOffset":3205656,"componentType":5126,"count":13920,"type":"VEC2","name":"accessorUVs"},{"bufferView":0,"byteOffset":1658508,"componentType":5125,"count":176064,"type":"SCALAR","name":"accessorIndices"},{"bufferView":1,"byteOffset":9951048,"componentType":5126,"count":176064,"max":[27.7491,41.80126,22.64671],"min":[-53.9732,-2.49414063,-6.076891],"type":"VEC3","name":"accessorPositions"},{"bufferView":1,"byteOffset":12063816,"componentType":5126,"count":176064,"type":"VEC3","name":"accessorNormals"},{"bufferView":2,"byteOffset":3317016,"componentType":5126,"count":176064,"type":"VEC2","name":"accessorUVs"},{"bufferView":0,"byteOffset":2362764,"componentType":5125,"count":61728,"type":"SCALAR","name":"accessorIndices"},{"bufferView":1,"byteOffset":14176584,"componentType":5126,"count":61728,"max":[5.5382,32.1641541,1.48180771],"min":[-10.4884,6.781456,-10.5938911],"type":"VEC3","name":"accessorPositions"},{"bufferView":1,"byteOffset":14917320,"componentType":5126,"count":61728,"type":"VEC3","name":"accessorNormals"},{"bufferView":2,"byteOffset":4725528,"componentType":5126,"count":61728,"type":"VEC2","name":"accessorUVs"},{"bufferView":0,"byteOffset":2609676,"componentType":5125,"count":220260,"type":"SCALAR","name":"accessorIndices"},{"bufferView":1,"byteOffset":15658056,"componentType":5126,"count":220260,"max":[2.8283,76.60395,13.0462074],"min":[-21.4502,-12.2163467,-21.2101917],"type":"VEC3","name":"accessorPositions"},{"bufferView":1,"byteOffset":18301176,"componentType":5126,"count":220260,"type":"VEC3","name":"accessorNormals"},{"bufferView":2,"byteOffset":5219352,"componentType":5126,"count":220260,"type":"VEC2","name":"accessorUVs"},{"bufferView":0,"byteOffset":3490716,"componentType":5125,"count":82608,"type":"SCALAR","name":"accessorIndices"},{"bufferView":1,"byteOffset":20944296,"componentType":5126,"count":82608,"max":[7.1891,59.0660629,10.8468094],"min":[-21.6438,-10.6106415,-22.277792],"type":"VEC3","name":"accessorPositions"},{"bufferView":1,"byteOffset":21935592,"componentType":5126,"count":82608,"type":"VEC3","name":"accessorNormals"},{"bufferView":2,"byteOffset":6981432,"componentType":5126,"count":82608,"type":"VEC2","name":"accessorUVs"},{"bufferView":0,"byteOffset":3821148,"componentType":5125,"count":1536,"type":"SCALAR","name":"accessorIndices"},{"bufferView":1,"byteOffset":22926888,"componentType":5126,"count":1536,"max":[-8.8023,38.52436,-0.106590271],"min":[-12.9337,36.55796,-2.73629],"type":"VEC3","name":"accessorPositions"},{"bufferView":1,"byteOffset":22945320,"componentType":5126,"count":1536,"type":"VEC3","name":"accessorNormals"},{"bufferView":2,"byteOffset":7642296,"componentType":5126,"count":1536,"type":"VEC2","name":"accessorUVs"},{"bufferView":0,"byteOffset":3827292,"componentType":5125,"count":332100,"type":"SCALAR","name":"accessorIndices"},{"bufferView":1,"byteOffset":22963752,"componentType":5126,"count":332100,"max":[74.23484,-8.494026,7.855255],"min":[-91.47507,-42.12249,-10.7103157],"type":"VEC3","name":"accessorPositions"},{"bufferView":1,"byteOffset":26948952,"componentType":5126,"count":332100,"type":"VEC3","name":"accessorNormals"},{"bufferView":2,"byteOffset":7654584,"componentType":5126,"count":332100,"type":"VEC2","name":"accessorUVs"}],"bufferViews":[{"buffer":0,"byteLength":5155692,"name":"bufferViewScalar"},{"buffer":0,"byteOffset":5155692,"byteLength":30934152,"byteStride":12,"name":"bufferViewFloatVec3"},{"buffer":0,"byteOffset":36089844,"byteLength":10311384,"byteStride":8,"name":"bufferViewFloatVec2"}],"buffers":[{"uri":"logo_3.bin","byteLength":46401228}],"materials":[{"pbrMetallicRoughness":{"baseColorFactor":[0.0235,0.0275,0.0275,1.0],"metallicFactor":0.0,"roughnessFactor":0.7022211},"name":"spikes"},{"pbrMetallicRoughness":{"baseColorFactor":[0.0039,0.0549,0.0,1.0],"metallicFactor":0.0,"roughnessFactor":0.25816378},"name":"Eyelashes"},{"pbrMetallicRoughness":{"baseColorFactor":[0.1647,1.0,0.0,1.0],"metallicFactor":0.0,"roughnessFactor":0.25816378},"name":"leather"},{"pbrMetallicRoughness":{"baseColorFactor":[0.1647,1.0,0.0,1.0],"metallicFactor":0.0,"roughnessFactor":0.351971656},"name":"boots"},{"pbrMetallicRoughness":{"baseColorFactor":[1.0,0.0471,0.0,1.0],"metallicFactor":0.0,"roughnessFactor":0.450053632},"name":"19___Default"},{"pbrMetallicRoughness":{"baseColorTexture":{"index":0,"extensions":{"KHR_texture_transform":{"texCoord":0}}},"metallicFactor":0.0,"roughnessFactor":0.222798437},"occlusionTexture":{"index":0,"extensions":{"KHR_texture_transform":{"texCoord":0}}},"name":"13___Default"},{"pbrMetallicRoughness":{"baseColorFactor":[0.164705887,0.164705887,0.164705887,1.0],"metallicFactor":0.0,"roughnessFactor":0.450053632},"name":"Material #57"},{"pbrMetallicRoughness":{"baseColorFactor":[0.698039234,0.333333343,0.13333334,1.0],"metallicFactor":0.0,"roughnessFactor":0.450053632},"name":"20 - Default"},{"pbrMetallicRoughness":{"baseColorFactor":[0.0,0.0,0.0,1.0],"metallicFactor":0.0,"roughnessFactor":0.450053632},"emissiveFactor":[0.0137310149,0.30208233,0.0],"name":"02 - Default"},{"pbrMetallicRoughness":{"baseColorTexture":{"index":0,"extensions":{"KHR_texture_transform":{"texCoord":0}}},"metallicFactor":0.0,"roughnessFactor":0.222798437},"name":"13 - Default"}],"textures":[{"sampler":0,"source":0,"name":"DfraS.png"},{"sampler":0,"source":0,"name":"DfraS.png"}],"images":[{"uri":"./DfraS.png"}],"samplers":[{"magFilter":9729,"minFilter":9987}]}